<svg width="84" height="84" viewBox="0 0 84 84" fill="none" xmlns="http://www.w3.org/2000/svg">
<path d="M55.1839 0.894315C44.1409 2.05841 35.0279 10.6091 33.0389 21.5583C32.2889 25.6091 32.5897 29.5075 33.6404 33.0703C34.0154 34.3633 33.6404 35.7695 32.6834 36.7265L1.85941 67.5705C1.14457 68.2658 0.753906 69.2189 0.753906 70.215V79.4962C0.753906 81.5587 2.44141 83.2462 4.50391 83.2462H13.7851C14.7773 83.2462 15.7343 82.8517 16.4296 82.1407L19.6718 78.9141C20.3476 78.2383 20.7421 77.3399 20.7577 76.3829L20.871 73.1759C20.9257 71.2071 22.5194 69.6134 24.4882 69.5587L28.3866 69.4259C30.3554 69.3712 31.9491 67.7775 32.0038 65.7892L32.1366 61.9064C32.1913 59.9376 33.785 58.3439 35.7538 58.2697L38.9608 58.176C39.9178 58.1564 40.8163 57.7619 41.492 57.0862L47.2654 51.3128C48.2224 50.3557 49.6092 49.9808 50.9216 50.3557C54.4841 51.4065 58.3864 51.7073 62.4526 50.9573C73.3866 48.969 81.9326 39.8553 83.0976 28.7933C84.8046 12.6683 71.3206 -0.815715 55.1756 0.891285L55.1839 0.894315ZM63.5628 26.9993C59.9456 26.9993 57.0003 24.054 57.0003 20.4368C57.0003 16.8196 59.9456 13.8743 63.5628 13.8743C67.18 13.8743 70.1253 16.8196 70.1253 20.4368C70.1253 24.054 67.18 26.9993 63.5628 26.9993Z" fill="white"/>
</svg>
