<svg width="88" height="88" viewBox="0 0 88 88" fill="none" xmlns="http://www.w3.org/2000/svg">
<path d="M74.4836 12.6408C65.9367 4.32829 54.6556 -0.0782068 42.7496 0.265793C19.3116 0.922043 0.265625 20.9688 0.265625 44.9538V86.1878C0.265625 87.0472 0.968745 87.7503 1.82812 87.7503H86.2031C87.0625 87.7503 87.7656 87.0472 87.7656 86.1878V43.9998C87.7656 32.0938 83.0468 20.9528 74.4996 12.6408H74.4836ZM84.6246 46.1098H76.7496V44.0004C76.7496 39.6566 75.8902 35.5316 74.3434 31.7344L81.234 27.7188C83.4528 32.7813 84.6246 38.2968 84.6246 43.9998V46.1098ZM11.2496 64.4538H3.37463V49.2348H11.2496V64.4538ZM31.8906 65.735H35.375L21.203 84.626H16.1561L31.8906 65.735ZM33.7812 73.0788H54.2342L57.3904 77.2976H30.6244L33.7812 73.0788ZM36.125 69.9538L39.2812 65.735H48.7187L51.8749 69.9538H36.1089H36.125ZM32.7188 62.61V44.001C32.7188 37.7822 37.7813 32.72 43.9998 32.72C50.2183 32.72 55.2808 37.7825 55.2808 44.001V62.61H32.7188ZM28.2657 80.407H59.7187L62.8749 84.6258H25.1089L28.2657 80.407ZM52.6247 65.735H56.1091L71.8431 84.626H66.7962L52.6247 65.735ZM58.4059 63.61V44.001C58.4059 36.0635 51.9528 29.595 43.9999 29.595C36.047 29.595 29.5939 36.0481 29.5939 44.001V63.61L14.3749 81.876V44.001C14.3749 27.673 27.6559 14.376 43.9999 14.376C60.3439 14.376 73.6249 27.657 73.6249 44.001V81.876L58.4059 63.61ZM45.5619 11.329V3.40709C52.265 3.67271 58.7029 5.53209 64.4059 8.86019L60.4684 15.7196C56.0465 13.1415 50.984 11.579 45.5774 11.3134L45.5619 11.329ZM42.4369 11.329C37.0307 11.579 31.9529 13.1571 27.5459 15.7352L23.6865 9.03209C29.249 5.68829 35.6395 3.67269 42.4365 3.42269V11.3446L42.4369 11.329ZM76.7489 49.235H84.6239V64.454H76.7489V49.235ZM79.8583 24.907L73.0145 28.8914C70.6395 24.3445 67.2176 20.4226 63.077 17.4384L67.0301 10.5478C68.8739 11.829 70.6395 13.2666 72.2957 14.8759C75.3582 17.8603 77.8895 21.2353 79.8582 24.8919L79.8583 24.907ZM21.0613 10.735L24.9051 17.4381C20.7645 20.4225 17.3426 24.3287 14.9676 28.8911L8.40513 25.063C11.4832 19.3599 15.8272 14.438 21.0613 10.735ZM7.03032 27.876L13.6553 31.7354C12.1241 35.5323 11.2491 39.6573 11.2491 44.0014V46.1108H3.37413V44.9702C3.37413 38.9077 4.68663 33.111 7.03032 27.876ZM3.37413 67.579H11.2491V84.626H3.37413V67.579ZM76.7491 84.626V67.579H84.6241V84.626H76.7491Z" fill="white"/>
</svg>
